<?xml version="1.0" encoding="UTF-8" standalone="no"?>
<!-- Created with Inkscape (http://www.inkscape.org/) -->

<svg
   width="210mm"
   height="297mm"
   viewBox="0 0 210 297"
   version="1.1"
   id="svg5"
   sodipodi:docname="Simon Says box Ólíver Blær.svg"
   inkscape:version="1.1 (c68e22c387, 2021-05-23)"
   xmlns:inkscape="http://www.inkscape.org/namespaces/inkscape"
   xmlns:sodipodi="http://sodipodi.sourceforge.net/DTD/sodipodi-0.dtd"
   xmlns="http://www.w3.org/2000/svg"
   xmlns:svg="http://www.w3.org/2000/svg">
  <sodipodi:namedview
     id="namedview7"
     pagecolor="#ffffff"
     bordercolor="#111111"
     borderopacity="1"
     inkscape:pageshadow="0"
     inkscape:pageopacity="0"
     inkscape:pagecheckerboard="1"
     inkscape:document-units="mm"
     showgrid="false"
     inkscape:zoom="1.3416246"
     inkscape:cx="436.03852"
     inkscape:cy="437.15657"
     inkscape:window-width="1920"
     inkscape:window-height="1013"
     inkscape:window-x="-9"
     inkscape:window-y="-9"
     inkscape:window-maximized="1"
     inkscape:current-layer="layer1"
     showguides="true" />
  <defs
     id="defs2">
    <rect
       x="346.59472"
       y="81.99015"
       width="339.14107"
       height="99.133545"
       id="rect5149" />
  </defs>
  <g
     inkscape:label="Layer 1"
     inkscape:groupmode="layer"
     id="layer1">
    <g
       id="panel9891">
      <path
         style="fill:none;stroke:#000000;stroke-width:1"
         d="M 66.4 140.9 L 81.58 140.9 L 81.58 137.8 L 96.78 137.8 L 96.78 140.9 L 111.86 140.9 L 111.86 137.8 L 127.06 137.8 L 127.06 140.9 L 142.14 140.9 L 142.14 137.8 L 157.34 137.8 L 157.34 140.9 L 172.42 140.9 L 172.42 137.8 L 187.62 137.8 L 187.62 140.9 L 202.8 140.9"
         id="path830" />
      <path
         style="fill:none;stroke:#000000;stroke-width:1"
         d="M 202.8 140.9 L 202.8 158.6 L 199.7 158.6 L 199.7 173.4 L 202.8 173.4 L 202.8 191.1"
         id="path832" />
      <path
         style="fill:none;stroke:#000000;stroke-width:1"
         d="M 202.8 191.1 L 187.62 191.1 L 187.62 194.2 L 172.42 194.2 L 172.42 191.1 L 157.34 191.1 L 157.34 194.2 L 142.14 194.2 L 142.14 191.1 L 127.06 191.1 L 127.06 194.2 L 111.86 194.2 L 111.86 191.1 L 96.78 191.1 L 96.78 194.2 L 81.58 194.2 L 81.58 191.1 L 66.4 191.1"
         id="path834" />
      <path
         style="fill:none;stroke:#000000;stroke-width:1"
         d="M 66.4 191.1 L 66.4 173.4 L 69.5 173.4 L 69.5 158.6 L 66.4 158.6 L 66.4 140.9"
         id="path836" />
    </g>
    <g
       id="panel8117">
      <path
         style="fill:none;stroke:#000000;stroke-width:1"
         d="M 8.1 69.5 L 25.6 69.5 L 25.6 66.4 L 40.8 66.4 L 40.8 69.5 L 58.3 69.5"
         id="path839" />
      <path
         style="fill:none;stroke:#000000;stroke-width:1"
         d="M 58.3 69.5 L 58.3 92 L 61.4 92 L 61.4 107.2 L 58.3 107.2 L 58.3 129.7"
         id="path841" />
      <path
         style="fill:none;stroke:#000000;stroke-width:1"
         d="M 58.3 129.7 L 40.8 129.7 L 40.8 132.8 L 25.6 132.8 L 25.6 129.7 L 8.1 129.7"
         id="path843" />
      <path
         style="fill:none;stroke:#000000;stroke-width:1"
         d="M 8.1 129.7 L 8.1 107.2 L 5 107.2 L 5 92 L 8.1 92 L 8.1 69.5"
         id="path845" />
    </g>
    <g
       id="panel5915">
      <path
         style="fill:none;stroke:#000000;stroke-width:1"
         d="M 66.4 66.4 L 81.78 66.4 L 81.78 69.5 L 96.58 69.5 L 96.58 66.4 L 112.06 66.4 L 112.06 69.5 L 126.86 69.5 L 126.86 66.4 L 142.34 66.4 L 142.34 69.5 L 157.14 69.5 L 157.14 66.4 L 172.62 66.4 L 172.62 69.5 L 187.42 69.5 L 187.42 66.4 L 202.8 66.4"
         id="path848" />
      <path
         style="fill:none;stroke:#000000;stroke-width:1"
         d="M 202.8 66.4 L 202.8 92.2 L 199.7 92.2 L 199.7 107 L 202.8 107 L 202.8 132.8"
         id="path850" />
      <path
         style="fill:none;stroke:#000000;stroke-width:1"
         d="M 202.8 132.8 L 187.42 132.8 L 187.42 129.7 L 172.62 129.7 L 172.62 132.8 L 157.14 132.8 L 157.14 129.7 L 142.34 129.7 L 142.34 132.8 L 126.86 132.8 L 126.86 129.7 L 112.06 129.7 L 112.06 132.8 L 96.58 132.8 L 96.58 129.7 L 81.78 129.7 L 81.78 132.8 L 66.4 132.8"
         id="path852" />
      <path
         style="fill:none;stroke:#000000;stroke-width:1"
         d="M 66.4 132.8 L 66.4 107 L 69.5 107 L 69.5 92.2 L 66.4 92.2 L 66.4 66.4"
         id="path854" />
    </g>
    <g
       id="panel1450">
      <path
         style="fill:none;stroke:#000000;stroke-width:1"
         d="M 210.9 69.5 L 228.4 69.5 L 228.4 66.4 L 243.6 66.4 L 243.6 69.5 L 261.1 69.5"
         id="path857" />
      <path
         style="fill:none;stroke:#000000;stroke-width:1"
         d="M 261.1 69.5 L 261.1 92 L 264.2 92 L 264.2 107.2 L 261.1 107.2 L 261.1 129.7"
         id="path859" />
      <path
         style="fill:none;stroke:#000000;stroke-width:1"
         d="M 261.1 129.7 L 243.6 129.7 L 243.6 132.8 L 228.4 132.8 L 228.4 129.7 L 210.9 129.7"
         id="path861" />
      <path
         style="fill:none;stroke:#000000;stroke-width:1"
         d="M 210.9 129.7 L 210.9 107.2 L 207.8 107.2 L 207.8 92 L 210.9 92 L 210.9 69.5"
         id="path863" />
    </g>
    <g
       id="panel1532">
      <path
         style="fill:none;stroke:#000000;stroke-width:1"
         d="m 269.2,66.4 c 48.59713,-14.33553 94.16856,-11.958655 136.4,0"
         id="path866"
         sodipodi:nodetypes="cc" />
      <path
         style="fill:none;stroke:#000000;stroke-width:1"
         d="M 405.6 66.4 L 405.6 92.2 L 402.5 92.2 L 402.5 107 L 405.6 107 L 405.6 132.8"
         id="path868" />
      <path
         style="fill:none;stroke:#000000;stroke-width:1"
         d="M 405.6 132.8 L 390.22 132.8 L 390.22 129.7 L 375.42 129.7 L 375.42 132.8 L 359.94 132.8 L 359.94 129.7 L 345.14 129.7 L 345.14 132.8 L 329.66 132.8 L 329.66 129.7 L 314.86 129.7 L 314.86 132.8 L 299.38 132.8 L 299.38 129.7 L 284.58 129.7 L 284.58 132.8 L 269.2 132.8"
         id="path870" />
      <path
         style="fill:none;stroke:#000000;stroke-width:1"
         d="M 269.2 132.8 L 269.2 107 L 272.3 107 L 272.3 92.2 L 269.2 92.2 L 269.2 66.4"
         id="path872" />
    </g>
    <g
       id="panel8133">
      <path
         style="fill:none;stroke:#000000;stroke-width:1"
         d="M 66.4 8.1 L 81.58 8.1 L 81.58 5 L 96.78 5 L 96.78 8.1 L 111.86 8.1 L 111.86 5 L 127.06 5 L 127.06 8.1 L 142.14 8.1 L 142.14 5 L 157.34 5 L 157.34 8.1 L 172.42 8.1 L 172.42 5 L 187.62 5 L 187.62 8.1 L 202.8 8.1"
         id="path875" />
      <path
         style="fill:none;stroke:#000000;stroke-width:1"
         d="M 202.8 8.1 L 202.8 25.8 L 199.7 25.8 L 199.7 40.6 L 202.8 40.6 L 202.8 58.3"
         id="path877" />
      <path
         style="fill:none;stroke:#000000;stroke-width:1"
         d="M 202.8 58.3 L 187.62 58.3 L 187.62 61.4 L 172.42 61.4 L 172.42 58.3 L 157.34 58.3 L 157.34 61.4 L 142.14 61.4 L 142.14 58.3 L 127.06 58.3 L 127.06 61.4 L 111.86 61.4 L 111.86 58.3 L 96.78 58.3 L 96.78 61.4 L 81.58 61.4 L 81.58 58.3 L 66.4 58.3"
         id="path879" />
      <path
         style="fill:none;stroke:#000000;stroke-width:1"
         d="M 66.4 58.3 L 66.4 40.6 L 69.5 40.6 L 69.5 25.8 L 66.4 25.8 L 66.4 8.1"
         id="path881" />
    </g>
    <g
       id="g7314"
       transform="translate(2.5660021,-5.1206814)">
      <ellipse
         style="opacity:1;fill:none;stroke:#000000;stroke-width:0.195312"
         id="path2241"
         cx="92.433998"
         cy="109.78403"
         rx="4.9023442"
         ry="4.9023438" />
      <ellipse
         style="opacity:1;fill:none;stroke:#000000;stroke-width:0.146485"
         id="ellipse2689"
         cx="92.367264"
         cy="98.870682"
         rx="3.6767581"
         ry="3.6767578" />
    </g>
    <g
       aria-label="Ólíver B."
       transform="scale(0.26458333)"
       id="text5147"
       style="font-size:74.6667px;line-height:1.25;white-space:pre;shape-inside:url(#rect5149)">
      <path
         d="m 394.35419,102.05882 q 3.31771,3.64584 5.06771,8.9323 1.78646,5.28646 1.78646,11.9948 0,6.70833 -1.82292,12.03125 -1.78646,5.28646 -5.03125,8.82292 -3.35417,3.6823 -7.94792,5.54167 -4.55729,1.85938 -10.42709,1.85938 -5.72396,0 -10.42709,-1.89583 -4.66667,-1.89584 -7.94792,-5.50522 -3.28125,-3.60937 -5.06771,-8.85938 -1.75,-5.25 -1.75,-11.99479 0,-6.63542 1.75,-11.88542 1.75,-5.28647 5.10417,-9.04168 3.20834,-3.572914 7.94792,-5.468748 4.77604,-1.895835 10.39063,-1.895835 5.83334,0 10.46355,1.932293 4.66667,1.895834 7.91146,5.43229 z m -0.65625,20.9271 q 0,-10.57292 -4.73959,-16.29689 -4.73958,-5.76041 -12.94271,-5.76041 -8.27605,0 -13.01563,5.76041 -4.70313,5.72397 -4.70313,16.29689 0,10.68229 4.8125,16.3698 4.81251,5.65104 12.90626,5.65104 8.09375,0 12.8698,-5.65104 4.8125,-5.68751 4.8125,-16.3698 z m -7.6198,-47.57815 -9.95313,13.635423 h -5.43229 l 6.52604,-13.635423 z"
         id="path7196" />
      <path
         d="m 419.03649,150.11093 h -6.85417 V 93.381737 h 6.85417 z"
         id="path7198" />
      <path
         d="m 439.52608,150.11093 h -6.85417 v -40.72398 h 6.85417 z m 7.54688,-61.104195 -9.95313,13.635425 h -5.43229 l 6.52604,-13.635425 z"
         id="path7200" />
      <path
         d="m 488.30736,109.38695 -16.47918,40.72398 h -6.89063 l -16.36979,-40.72398 h 7.4375 l 12.61459,32.41148 12.50521,-32.41148 z"
         id="path7202" />
      <path
         d="m 530.70841,130.45988 h -30.00522 q 0,3.75521 1.13021,6.5625 1.13021,2.77084 3.09896,4.5573 1.89583,1.75 4.48438,2.625 2.625,0.875 5.76042,0.875 4.15625,0 8.34896,-1.64063 4.22917,-1.67708 6.01563,-3.28125 h 0.36458 v 7.47396 q -3.46354,1.45834 -7.07292,2.44271 -3.60938,0.98438 -7.58334,0.98438 -10.13542,0 -15.82292,-5.46875 -5.6875,-5.50522 -5.6875,-15.60418 0,-9.98959 5.43229,-15.85938 5.46875,-5.8698 14.36459,-5.8698 8.23959,0 12.68751,4.81251 4.48437,4.8125 4.48437,13.67188 z m -6.67187,-5.25 q -0.0365,-5.39584 -2.73438,-8.34897 -2.66146,-2.95312 -8.13021,-2.95312 -5.50521,0 -8.78647,3.24479 -3.24479,3.24479 -3.68229,8.0573 z"
         id="path7204" />
      <path
         d="m 566.51051,116.86091 h -0.36458 q -1.53125,-0.36458 -2.98958,-0.51041 -1.42188,-0.18229 -3.39063,-0.18229 -3.17188,0 -6.125,1.42187 -2.95313,1.38542 -5.68751,3.60938 v 28.91147 h -6.85417 v -40.72398 h 6.85417 v 6.01563 q 4.08334,-3.28125 7.1823,-4.63021 3.13542,-1.38542 6.38021,-1.38542 1.78646,0 2.58854,0.10938 0.80209,0.0729 2.40625,0.32812 z"
         id="path7206" />
      <path
         d="m 640.70327,133.41301 q 0,4.04687 -1.53125,7.14583 -1.53125,3.09896 -4.11979,5.10417 -3.06251,2.40625 -6.7448,3.42709 -3.64583,1.02083 -9.29688,1.02083 H 599.76054 V 95.824446 h 16.07813 q 5.94272,0 8.89584,0.4375 2.95313,0.437501 5.65105,1.822918 2.98958,1.567709 4.33854,4.046876 1.34896,2.44271 1.34896,5.8698 0,3.86458 -1.96875,6.59896 -1.96875,2.69791 -5.25,4.33854 v 0.29167 q 5.50521,1.13021 8.67708,4.84896 3.17188,3.68229 3.17188,9.33334 z m -12.14063,-24.46356 q 0,-1.96875 -0.65625,-3.31771 -0.65625,-1.34896 -2.11459,-2.1875 -1.71354,-0.98437 -4.15625,-1.20312 -2.44271,-0.25521 -6.05208,-0.25521 H 606.9793 V 117.663 h 9.33333 q 3.39063,0 5.39584,-0.32813 2.00521,-0.36458 3.71875,-1.45833 1.71354,-1.09375 2.40625,-2.80729 0.72917,-1.75 0.72917,-4.1198 z m 4.63021,24.75522 q 0,-3.28125 -0.98438,-5.21354 -0.98437,-1.93229 -3.57291,-3.28125 -1.75,-0.91146 -4.26563,-1.16667 -2.47917,-0.29167 -6.05209,-0.29167 H 606.9793 v 20.19793 h 9.55208 q 4.73959,0 7.76563,-0.47396 3.02605,-0.51042 4.95834,-1.82292 2.04167,-1.42187 2.98958,-3.24479 0.94792,-1.82292 0.94792,-4.70313 z"
         id="path7208" />
      <path
         d="m 660.86472,150.11093 h -8.71354 V 139.7203 h 8.71354 z"
         id="path7210" />
    </g>
    <g
       id="g7320"
       transform="translate(26.527158,-5.1206814)">
      <ellipse
         style="opacity:1;fill:none;stroke:#000000;stroke-width:0.195312"
         id="ellipse7316"
         cx="92.433998"
         cy="109.78403"
         rx="4.9023442"
         ry="4.9023438" />
      <ellipse
         style="opacity:1;fill:none;stroke:#000000;stroke-width:0.146485"
         id="ellipse7318"
         cx="92.367264"
         cy="98.870682"
         rx="3.6767581"
         ry="3.6767578" />
    </g>
    <g
       id="g7326"
       transform="translate(51.671581,-5.1206814)">
      <ellipse
         style="opacity:1;fill:none;stroke:#000000;stroke-width:0.195312"
         id="ellipse7322"
         cx="92.433998"
         cy="109.78403"
         rx="4.9023442"
         ry="4.9023438" />
      <ellipse
         style="opacity:1;fill:none;stroke:#000000;stroke-width:0.146485"
         id="ellipse7324"
         cx="92.367264"
         cy="98.870682"
         rx="3.6767581"
         ry="3.6767578" />
    </g>
    <g
       id="g7332"
       transform="translate(75.928553,-5.1206814)">
      <ellipse
         style="opacity:1;fill:none;stroke:#000000;stroke-width:0.195312"
         id="ellipse7328"
         cx="92.433998"
         cy="109.78403"
         rx="4.9023442"
         ry="4.9023438" />
      <ellipse
         style="opacity:1;fill:none;stroke:#000000;stroke-width:0.146485"
         id="ellipse7330"
         cx="92.367264"
         cy="98.870682"
         rx="3.6767581"
         ry="3.6767578" />
    </g>
  </g>
</svg>
